REM DIRINDEX 1\2,1\3,1\4
REM DIRNAME folder01,folder02,folder03,folder04
TITLE ""
FILE "CD3Track24.mp3" MP3
  TRACK 01 AUDIO
    TITLE "0:"
    INDEX 01 00:00:00
  TRACK 02 AUDIO
    TITLE "2:cjc077_1176"
    INDEX 01 00:00:15
  TRACK 03 AUDIO
    TITLE "2:cjc077_1177"
    INDEX 01 00:12:40
  TRACK 04 AUDIO
    TITLE "0:"
    INDEX 01 00:20:34
